<svg width="598" height="140" viewBox="0 0 598 140" fill="none" xmlns="http://www.w3.org/2000/svg">
<path d="M519.774 117.225H541.465L549.057 128.612L541.464 140H521C507.745 140 497 129.255 497 116V88.2715L507.277 95.124L508.387 95.8633L509.496 95.124L519.774 88.2715V117.225ZM597.999 95.5342V116C597.999 129.255 587.254 140 573.999 140H546.271L553.124 129.722L553.863 128.612L553.124 127.503L546.271 117.225H575.225V95.5342L586.612 87.9424L597.999 95.5342ZM541.875 49.2773L541.136 50.3867L541.875 51.4961L548.728 61.7744H519.774V83.4639L508.387 91.0566L497 83.4639V63C497 49.7452 507.745 39 521 39H548.728L541.875 49.2773ZM573.999 39C587.254 39.0001 597.999 49.7452 597.999 63V90.7266L587.722 83.875L586.612 83.1357L585.503 83.875L575.225 90.7266V61.7744H553.534L545.942 50.3867L553.534 39H573.999Z" fill="#333333"/>
<path d="M77 39C90.2547 39.0001 101 49.7452 101 63V115.999C101 129.254 90.2547 139.999 77 139.999H24C10.7452 139.999 0 129.254 0 115.999V63C0 49.7452 10.7452 39 24 39H77ZM23.2461 62.2461V116.753H77.7529V62.2461H23.2461Z" fill="#333333"/>
<path d="M193.892 39C207.146 39 217.892 49.7452 217.892 63V75.1191C217.891 88.3736 207.146 99.1191 193.892 99.1191H186.893L217.087 140H188.142L157.947 99.1191H142.313V140H113.368V39H193.892ZM143.117 59.8408V80.6826L188.946 80.6816V59.8408H143.117Z" fill="#333333"/>
<path d="M345 140L345 39L374 39L374 140L345 140Z" fill="#333333"/>
<path d="M345 29L345 1.90735e-06L374 6.39718e-07L374 29L345 29Z" fill="#EE583F"/>
<path d="M490 59.7939H452V140H423V59.7939H384V39H490V59.7939Z" fill="#333333"/>
<path d="M309.406 39C322.363 39.0003 332.867 49.5048 332.867 62.4619C332.867 73.1664 328.277 82.798 320.96 89.5C328.278 96.202 332.867 105.834 332.867 116.539C332.867 129.496 322.363 140 309.406 140H228.344V39H309.406ZM303.862 98.3174C301.394 98.8418 298.834 99.1201 296.209 99.1201H258.093V119.159H303.922V98.3174H303.862ZM258.093 79.8809H296.209C298.832 79.8809 301.39 80.1589 303.857 80.6826H303.922V59.8408H258.093V79.8809Z" fill="#333333"/>
</svg>
